<svg width="48" height="48" viewBox="0 0 48 48" fill="none" xmlns="http://www.w3.org/2000/svg">
<path d="M8.51953 22.04V31.98C8.51953 35.62 8.51953 35.62 11.9595 37.94L21.4195 43.4C22.8395 44.22 25.1595 44.22 26.5795 43.4L36.0395 37.94C39.4795 35.62 39.4795 35.62 39.4795 31.98V22.04C39.4795 18.4 39.4795 18.4 36.0395 16.08L26.5795 10.62C25.1595 9.8 22.8395 9.8 21.4195 10.62L11.9595 16.08C8.51953 18.4 8.51953 18.4 8.51953 22.04Z" stroke="#1E355C" stroke-width="1.5" stroke-linecap="round" stroke-linejoin="round"/>
<path d="M35 15.26V10C35 6 33 4 29 4H19C15 4 13 6 13 10V15.12" stroke="#1E355C" stroke-width="1.5" stroke-linecap="round" stroke-linejoin="round"/>
<path d="M25.2596 21.98L26.3996 23.76C26.5796 24.04 26.9796 24.32 27.2796 24.4L29.3196 24.92C30.5796 25.24 30.9196 26.32 30.0996 27.32L28.7596 28.94C28.5596 29.2 28.3996 29.66 28.4196 29.98L28.5396 32.08C28.6196 33.38 27.6996 34.04 26.4996 33.56L24.5396 32.78C24.2396 32.66 23.7396 32.66 23.4396 32.78L21.4796 33.56C20.2796 34.04 19.3596 33.36 19.4396 32.08L19.5596 29.98C19.5796 29.66 19.4196 29.18 19.2196 28.94L17.8796 27.32C17.0596 26.32 17.3996 25.24 18.6596 24.92L20.6996 24.4C21.0196 24.32 21.4196 24.02 21.5796 23.76L22.7196 21.98C23.4396 20.9 24.5596 20.9 25.2596 21.98Z" stroke="#F1511B" stroke-width="2" stroke-linecap="round" stroke-linejoin="round"/>
</svg>
