<svg width="249" height="40" viewBox="0 0 249 40" fill="none" xmlns="http://www.w3.org/2000/svg">
<path d="M53 40H21V0H53V40Z" fill="#A42F12"/>
<path d="M31.7235 27H0L21.2768 0H53L31.7235 27Z" fill="#F1511B"/>
<path d="M93.7453 40V18.9298L87.0285 33.7464H81.1586L74.4427 18.9298V40H64V0H75.4582L84.0947 18.8173L92.7855 0H104V40H93.7453Z" fill="#1E355C"/>
<path d="M125.972 30.3354C127.245 30.3354 128.331 30.0567 129.23 29.4969C130.129 28.9391 130.86 28.2036 131.42 27.2905C131.982 26.3776 132.393 25.3266 132.656 24.1335C132.917 22.9427 133.049 21.695 133.049 20.3908V0H144V20.3908C144 23.1474 143.645 25.7257 142.934 28.1285C142.222 30.5308 141.117 32.6073 139.621 34.3568C138.122 36.1093 136.241 37.4872 133.976 38.4924C131.71 39.4979 129.043 40 125.972 40C122.79 40 120.065 39.4702 117.8 38.4083C115.536 37.3472 113.673 35.9224 112.212 34.1343C110.752 32.3472 109.685 30.2707 109.012 27.9044C108.337 25.5401 108 23.0354 108 20.3908V0H118.952V20.3908C118.952 21.695 119.083 22.9528 119.345 24.1617C119.607 25.3719 120.019 26.4346 120.581 27.3467C121.142 28.26 121.863 28.9863 122.743 29.5248C123.623 30.0658 124.699 30.3354 125.972 30.3354Z" fill="#1E355C"/>
<path d="M222.808 0L230.027 12.619L237.247 0H249L235.737 20.2817L248.552 40H236.8L230.027 27.9439L223.255 40H211.447L224.263 20.2817L211 0H222.808Z" fill="#1E355C"/>
<path d="M176 14.8256C176 5.64339 171.376 0 162.126 0H148.019V8.95494L160.3 8.96588C162.613 8.96588 167.453 8.83781 167.453 13.7411C167.453 16.3429 164.418 18.6081 162.273 18.6081H148.121L148 27.5822H156.796L164.055 40H174.891L166.636 26.4678C171.181 24.7931 176 21.1328 176 14.8256Z" fill="#1E355C"/>
<path d="M191.791 30.4226V24.6083L205.823 24.6059L206.242 15.5171L191.791 15.5208V9.5771H208.503V0H181V40H209V30.4226H191.791Z" fill="#1E355C"/>
</svg>
