<svg xmlns="http://www.w3.org/2000/svg" width="292" height="419" viewBox="0 0 292 419" fill="none">
<path d="M292 351.389L241 391.389L1.82884e-05 391.389L1.65399e-05 351.389L292 351.389Z" fill="#A42F12"/>
<path d="M292 351.389L241 391.389L1.82884e-05 391.389L1.65399e-05 351.389L292 351.389Z" fill="url(#paint0_linear_21_347)"/>
<path d="M34 378.286L34 418.389L2.09274e-05 391.492L1.91744e-05 351.389L34 378.286Z" fill="#F1511B"/>
<path d="M71 280.228L33.6003 280.228L59.8998 292.822L59.8998 303.828L33.6003 316.42L71 316.42L71 336L1.82884e-05 336L1.73493e-05 314.516L33.4007 298.323L1.59292e-05 282.027L1.501e-05 261L71 261L71 280.228Z" fill="#1E355C"/>
<path d="M53.8454 221.549C53.8454 219.321 53.3507 217.421 52.3569 215.847C51.367 214.275 50.0614 212.995 48.4406 212.015C46.8203 211.031 44.9548 210.311 42.8369 209.852C40.7233 209.396 38.5086 209.164 36.1937 209.164L1.63722e-05 209.164L1.55346e-05 190L36.1937 190C41.0867 190 45.6631 190.621 49.9282 191.865C54.1922 193.112 57.8779 195.044 60.9834 197.663C64.094 200.287 66.5398 203.578 68.3241 207.542C70.1088 211.508 71 216.175 71 221.549C71 227.118 70.0597 231.886 68.1748 235.849C66.2913 239.813 63.7623 243.073 60.5884 245.628C57.4163 248.185 53.7306 250.051 49.5303 251.23C45.3338 252.411 40.8878 253 36.1937 253L1.82884e-05 253L1.74506e-05 233.834L36.1937 233.834C38.5086 233.834 40.7413 233.604 42.887 233.146C45.0351 232.688 46.9215 231.966 48.5403 230.982C50.1616 230.001 51.4506 228.74 52.4066 227.199C53.3667 225.66 53.8454 223.777 53.8454 221.549Z" fill="#1E355C"/>
<path d="M1.73647e-05 46.8697L22.3988 33.9513L1.62353e-05 21.032L1.5316e-05 1.58672e-05L36.0001 23.7345L71 0.802221L71 21.8319L49.6005 33.9513L71 46.0703L71 67.2002L36.0001 44.2669L1.82884e-05 68L1.73647e-05 46.8697Z" fill="#1E355C"/>
<path d="M26.3155 132C10.017 132 1.64638e-05 140.257 1.71858e-05 156.775L1.82869e-05 181.965L15.895 181.965L15.9145 160.035C15.9145 155.906 15.6871 147.262 24.3905 147.262C29.0087 147.262 33.0294 152.682 33.0294 156.513L33.0294 181.784L48.9585 182L48.9585 166.294L71 153.331L71 133.98L46.9804 148.722C44.0078 140.606 37.5108 132 26.3155 132Z" fill="#1E355C"/>
<path d="M54.0002 103.345L43.6797 103.345L43.6754 77.7861L27.5429 77.0238L27.5495 103.345L16.9994 103.345L16.9994 72.9058L1.60987e-05 72.9058L1.82884e-05 123L71 123L71 72L54.0002 72L54.0002 103.345Z" fill="#1E355C"/>
<defs>
<linearGradient id="paint0_linear_21_347" x1="32.5" y1="391.39" x2="292" y2="351.39" gradientUnits="userSpaceOnUse">
<stop stop-color="#F1511B" stop-opacity="0"/>
<stop offset="1" stop-color="#F1511B"/>
</linearGradient>
</defs>
</svg>